<?xml version="1.0" encoding="UTF-8" standalone="no"?>
<!DOCTYPE svg PUBLIC "-//W3C//DTD SVG 1.1//EN"
 "http://www.w3.org/Graphics/SVG/1.1/DTD/svg11.dtd">
<!-- Generated by graphviz version 2.36.0 (20140111.2315)
 -->
<!-- Title: controllers_diagram Pages: 1 -->
<svg width="686pt" height="693pt"
 viewBox="0.00 0.00 686.00 693.00" xmlns="http://www.w3.org/2000/svg" xmlns:xlink="http://www.w3.org/1999/xlink">
<g id="graph0" class="graph" transform="scale(1 1) rotate(0) translate(4 689)">
<title>controllers_diagram</title>
<polygon fill="none" stroke="none" points="-4,4 -4,-689 682,-689 682,4 -4,4"/>
<!-- _diagram_info -->
<g id="node1" class="node"><title>_diagram_info</title>
<text text-anchor="start" x="260" y="-63.6" font-family="Times,serif" font-size="13.00">Controllers diagram</text>
<text text-anchor="start" x="260" y="-49.6" font-family="Times,serif" font-size="13.00">Date: Nov 08 2016 &#45; 19:19</text>
<text text-anchor="start" x="260" y="-35.6" font-family="Times,serif" font-size="13.00">Migration version: 20160825083256</text>
<text text-anchor="start" x="260" y="-21.6" font-family="Times,serif" font-size="13.00">Generated by RailRoady 1.5.2</text>
<text text-anchor="start" x="260" y="-7.6" font-family="Times,serif" font-size="13.00">http://railroady.prestonlee.com</text>
</g>
<!-- SessionsController -->
<g id="node2" class="node"><title>SessionsController</title>
<path fill="none" stroke="black" d="M12,-0.5C12,-0.5 107,-0.5 107,-0.5 113,-0.5 119,-6.5 119,-12.5 119,-12.5 119,-111.5 119,-111.5 119,-117.5 113,-123.5 107,-123.5 107,-123.5 12,-123.5 12,-123.5 6,-123.5 0,-117.5 0,-111.5 0,-111.5 0,-12.5 0,-12.5 0,-6.5 6,-0.5 12,-0.5"/>
<text text-anchor="middle" x="59.5" y="-108.3" font-family="Times,serif" font-size="14.00">SessionsController</text>
<polyline fill="none" stroke="black" points="0,-100.5 119,-100.5 "/>
<text text-anchor="start" x="8" y="-85.3" font-family="Times,serif" font-size="14.00">create</text>
<text text-anchor="start" x="8" y="-70.3" font-family="Times,serif" font-size="14.00">destroy</text>
<text text-anchor="start" x="8" y="-55.3" font-family="Times,serif" font-size="14.00">new</text>
<polyline fill="none" stroke="black" points="0,-47.5 119,-47.5 "/>
<polyline fill="none" stroke="black" points="0,-23.5 119,-23.5 "/>
<text text-anchor="start" x="8" y="-8.3" font-family="Times,serif" font-size="14.00">_layout</text>
</g>
<!-- EmployeesController -->
<g id="node3" class="node"><title>EmployeesController</title>
<path fill="none" stroke="black" d="M354,-162.5C354,-162.5 463,-162.5 463,-162.5 469,-162.5 475,-168.5 475,-174.5 475,-174.5 475,-363.5 475,-363.5 475,-369.5 469,-375.5 463,-375.5 463,-375.5 354,-375.5 354,-375.5 348,-375.5 342,-369.5 342,-363.5 342,-363.5 342,-174.5 342,-174.5 342,-168.5 348,-162.5 354,-162.5"/>
<text text-anchor="middle" x="408.5" y="-360.3" font-family="Times,serif" font-size="14.00">EmployeesController</text>
<polyline fill="none" stroke="black" points="342,-352.5 475,-352.5 "/>
<text text-anchor="start" x="350" y="-337.3" font-family="Times,serif" font-size="14.00">create</text>
<text text-anchor="start" x="350" y="-322.3" font-family="Times,serif" font-size="14.00">destroy</text>
<text text-anchor="start" x="350" y="-307.3" font-family="Times,serif" font-size="14.00">edit</text>
<text text-anchor="start" x="350" y="-292.3" font-family="Times,serif" font-size="14.00">index</text>
<text text-anchor="start" x="350" y="-277.3" font-family="Times,serif" font-size="14.00">new</text>
<text text-anchor="start" x="350" y="-262.3" font-family="Times,serif" font-size="14.00">show</text>
<text text-anchor="start" x="350" y="-247.3" font-family="Times,serif" font-size="14.00">update</text>
<polyline fill="none" stroke="black" points="342,-239.5 475,-239.5 "/>
<polyline fill="none" stroke="black" points="342,-215.5 475,-215.5 "/>
<text text-anchor="start" x="350" y="-200.3" font-family="Times,serif" font-size="14.00">_layout</text>
<text text-anchor="start" x="350" y="-185.3" font-family="Times,serif" font-size="14.00">employee_params</text>
<text text-anchor="start" x="350" y="-170.3" font-family="Times,serif" font-size="14.00">set_employee</text>
</g>
<!-- ToolsController -->
<g id="node4" class="node"><title>ToolsController</title>
<path fill="none" stroke="black" d="M210,-108.5C210,-108.5 289,-108.5 289,-108.5 295,-108.5 301,-114.5 301,-120.5 301,-120.5 301,-354.5 301,-354.5 301,-360.5 295,-366.5 289,-366.5 289,-366.5 210,-366.5 210,-366.5 204,-366.5 198,-360.5 198,-354.5 198,-354.5 198,-120.5 198,-120.5 198,-114.5 204,-108.5 210,-108.5"/>
<text text-anchor="middle" x="249.5" y="-351.3" font-family="Times,serif" font-size="14.00">ToolsController</text>
<polyline fill="none" stroke="black" points="198,-343.5 301,-343.5 "/>
<text text-anchor="start" x="206" y="-328.3" font-family="Times,serif" font-size="14.00">create</text>
<text text-anchor="start" x="206" y="-313.3" font-family="Times,serif" font-size="14.00">destroy</text>
<text text-anchor="start" x="206" y="-298.3" font-family="Times,serif" font-size="14.00">edit</text>
<text text-anchor="start" x="206" y="-283.3" font-family="Times,serif" font-size="14.00">index</text>
<text text-anchor="start" x="206" y="-268.3" font-family="Times,serif" font-size="14.00">new</text>
<text text-anchor="start" x="206" y="-253.3" font-family="Times,serif" font-size="14.00">refill</text>
<text text-anchor="start" x="206" y="-238.3" font-family="Times,serif" font-size="14.00">reorder</text>
<text text-anchor="start" x="206" y="-223.3" font-family="Times,serif" font-size="14.00">save_refill</text>
<text text-anchor="start" x="206" y="-208.3" font-family="Times,serif" font-size="14.00">show</text>
<text text-anchor="start" x="206" y="-193.3" font-family="Times,serif" font-size="14.00">update</text>
<polyline fill="none" stroke="black" points="198,-185.5 301,-185.5 "/>
<polyline fill="none" stroke="black" points="198,-161.5 301,-161.5 "/>
<text text-anchor="start" x="206" y="-146.3" font-family="Times,serif" font-size="14.00">_layout</text>
<text text-anchor="start" x="206" y="-131.3" font-family="Times,serif" font-size="14.00">set_tool</text>
<text text-anchor="start" x="206" y="-116.3" font-family="Times,serif" font-size="14.00">tool_params</text>
</g>
<!-- EmployeeSessionsController -->
<g id="node5" class="node"><title>EmployeeSessionsController</title>
<path fill="none" stroke="black" d="M516,-198.5C516,-198.5 666,-198.5 666,-198.5 672,-198.5 678,-204.5 678,-210.5 678,-210.5 678,-309.5 678,-309.5 678,-315.5 672,-321.5 666,-321.5 666,-321.5 516,-321.5 516,-321.5 510,-321.5 504,-315.5 504,-309.5 504,-309.5 504,-210.5 504,-210.5 504,-204.5 510,-198.5 516,-198.5"/>
<text text-anchor="middle" x="591" y="-306.3" font-family="Times,serif" font-size="14.00">EmployeeSessionsController</text>
<polyline fill="none" stroke="black" points="504,-298.5 678,-298.5 "/>
<text text-anchor="start" x="512" y="-283.3" font-family="Times,serif" font-size="14.00">create</text>
<text text-anchor="start" x="512" y="-268.3" font-family="Times,serif" font-size="14.00">destroy</text>
<text text-anchor="start" x="512" y="-253.3" font-family="Times,serif" font-size="14.00">new</text>
<polyline fill="none" stroke="black" points="504,-245.5 678,-245.5 "/>
<polyline fill="none" stroke="black" points="504,-221.5 678,-221.5 "/>
<text text-anchor="start" x="512" y="-206.3" font-family="Times,serif" font-size="14.00">_layout</text>
</g>
<!-- UsersController -->
<g id="node6" class="node"><title>UsersController</title>
<path fill="none" stroke="black" d="M30,-486.5C30,-486.5 134,-486.5 134,-486.5 140,-486.5 146,-492.5 146,-498.5 146,-498.5 146,-672.5 146,-672.5 146,-678.5 140,-684.5 134,-684.5 134,-684.5 30,-684.5 30,-684.5 24,-684.5 18,-678.5 18,-672.5 18,-672.5 18,-498.5 18,-498.5 18,-492.5 24,-486.5 30,-486.5"/>
<text text-anchor="middle" x="82" y="-669.3" font-family="Times,serif" font-size="14.00">UsersController</text>
<polyline fill="none" stroke="black" points="18,-661.5 146,-661.5 "/>
<text text-anchor="start" x="26" y="-646.3" font-family="Times,serif" font-size="14.00">create</text>
<text text-anchor="start" x="26" y="-631.3" font-family="Times,serif" font-size="14.00">destroy</text>
<text text-anchor="start" x="26" y="-616.3" font-family="Times,serif" font-size="14.00">index</text>
<text text-anchor="start" x="26" y="-601.3" font-family="Times,serif" font-size="14.00">new</text>
<text text-anchor="start" x="26" y="-586.3" font-family="Times,serif" font-size="14.00">update</text>
<polyline fill="none" stroke="black" points="18,-578.5 146,-578.5 "/>
<polyline fill="none" stroke="black" points="18,-554.5 146,-554.5 "/>
<text text-anchor="start" x="26" y="-539.3" font-family="Times,serif" font-size="14.00">_layout</text>
<text text-anchor="start" x="26" y="-524.3" font-family="Times,serif" font-size="14.00">require_correct_user</text>
<text text-anchor="start" x="26" y="-509.3" font-family="Times,serif" font-size="14.00">set_user</text>
<text text-anchor="start" x="26" y="-494.3" font-family="Times,serif" font-size="14.00">user_params</text>
</g>
<!-- MachinesController -->
<g id="node7" class="node"><title>MachinesController</title>
<path fill="none" stroke="black" d="M192,-396.5C192,-396.5 293,-396.5 293,-396.5 299,-396.5 305,-402.5 305,-408.5 305,-408.5 305,-612.5 305,-612.5 305,-618.5 299,-624.5 293,-624.5 293,-624.5 192,-624.5 192,-624.5 186,-624.5 180,-618.5 180,-612.5 180,-612.5 180,-408.5 180,-408.5 180,-402.5 186,-396.5 192,-396.5"/>
<text text-anchor="middle" x="242.5" y="-609.3" font-family="Times,serif" font-size="14.00">MachinesController</text>
<polyline fill="none" stroke="black" points="180,-601.5 305,-601.5 "/>
<text text-anchor="start" x="188" y="-586.3" font-family="Times,serif" font-size="14.00">create</text>
<text text-anchor="start" x="188" y="-571.3" font-family="Times,serif" font-size="14.00">destroy</text>
<text text-anchor="start" x="188" y="-556.3" font-family="Times,serif" font-size="14.00">edit</text>
<text text-anchor="start" x="188" y="-541.3" font-family="Times,serif" font-size="14.00">index</text>
<text text-anchor="start" x="188" y="-526.3" font-family="Times,serif" font-size="14.00">new</text>
<text text-anchor="start" x="188" y="-511.3" font-family="Times,serif" font-size="14.00">overdue</text>
<text text-anchor="start" x="188" y="-496.3" font-family="Times,serif" font-size="14.00">show</text>
<text text-anchor="start" x="188" y="-481.3" font-family="Times,serif" font-size="14.00">update</text>
<polyline fill="none" stroke="black" points="180,-473.5 305,-473.5 "/>
<polyline fill="none" stroke="black" points="180,-449.5 305,-449.5 "/>
<text text-anchor="start" x="188" y="-434.3" font-family="Times,serif" font-size="14.00">_layout</text>
<text text-anchor="start" x="188" y="-419.3" font-family="Times,serif" font-size="14.00">machine_params</text>
<text text-anchor="start" x="188" y="-404.3" font-family="Times,serif" font-size="14.00">set_machine</text>
</g>
<!-- ApplicationController -->
<g id="node8" class="node"><title>ApplicationController</title>
<path fill="none" stroke="black" d="M426,-414.5C426,-414.5 557,-414.5 557,-414.5 563,-414.5 569,-420.5 569,-426.5 569,-426.5 569,-570.5 569,-570.5 569,-576.5 563,-582.5 557,-582.5 557,-582.5 426,-582.5 426,-582.5 420,-582.5 414,-576.5 414,-570.5 414,-570.5 414,-426.5 414,-426.5 414,-420.5 420,-414.5 426,-414.5"/>
<text text-anchor="middle" x="491.5" y="-567.3" font-family="Times,serif" font-size="14.00">ApplicationController</text>
<polyline fill="none" stroke="black" points="414,-559.5 569,-559.5 "/>
<text text-anchor="start" x="422" y="-544.3" font-family="Times,serif" font-size="14.00">current_employee</text>
<text text-anchor="start" x="422" y="-529.3" font-family="Times,serif" font-size="14.00">current_user</text>
<text text-anchor="start" x="422" y="-514.3" font-family="Times,serif" font-size="14.00">require_employee</text>
<text text-anchor="start" x="422" y="-499.3" font-family="Times,serif" font-size="14.00">require_signin</text>
<text text-anchor="start" x="422" y="-484.3" font-family="Times,serif" font-size="14.00">watch_session_employee</text>
<text text-anchor="start" x="422" y="-469.3" font-family="Times,serif" font-size="14.00">watch_session_user</text>
<polyline fill="none" stroke="black" points="414,-461.5 569,-461.5 "/>
<polyline fill="none" stroke="black" points="414,-437.5 569,-437.5 "/>
<text text-anchor="start" x="422" y="-422.3" font-family="Times,serif" font-size="14.00">_layout</text>
</g>
<!-- IndexmachinesController -->
<g id="node9" class="node"><title>IndexmachinesController</title>
<path fill="none" stroke="black" d="M516,-0.5C516,-0.5 647,-0.5 647,-0.5 653,-0.5 659,-6.5 659,-12.5 659,-12.5 659,-141.5 659,-141.5 659,-147.5 653,-153.5 647,-153.5 647,-153.5 516,-153.5 516,-153.5 510,-153.5 504,-147.5 504,-141.5 504,-141.5 504,-12.5 504,-12.5 504,-6.5 510,-0.5 516,-0.5"/>
<text text-anchor="middle" x="581.5" y="-138.3" font-family="Times,serif" font-size="14.00">IndexmachinesController</text>
<polyline fill="none" stroke="black" points="504,-130.5 659,-130.5 "/>
<text text-anchor="start" x="512" y="-115.3" font-family="Times,serif" font-size="14.00">create</text>
<text text-anchor="start" x="512" y="-100.3" font-family="Times,serif" font-size="14.00">destroy</text>
<text text-anchor="start" x="512" y="-85.3" font-family="Times,serif" font-size="14.00">new</text>
<polyline fill="none" stroke="black" points="504,-77.5 659,-77.5 "/>
<polyline fill="none" stroke="black" points="504,-53.5 659,-53.5 "/>
<text text-anchor="start" x="512" y="-38.3" font-family="Times,serif" font-size="14.00">_layout</text>
<text text-anchor="start" x="512" y="-23.3" font-family="Times,serif" font-size="14.00">indexmachine_params</text>
<text text-anchor="start" x="512" y="-8.3" font-family="Times,serif" font-size="14.00">set_employee</text>
</g>
<!-- IndextoolsController -->
<g id="node10" class="node"><title>IndextoolsController</title>
<path fill="none" stroke="black" d="M48,-162.5C48,-162.5 153,-162.5 153,-162.5 159,-162.5 165,-168.5 165,-174.5 165,-174.5 165,-348.5 165,-348.5 165,-354.5 159,-360.5 153,-360.5 153,-360.5 48,-360.5 48,-360.5 42,-360.5 36,-354.5 36,-348.5 36,-348.5 36,-174.5 36,-174.5 36,-168.5 42,-162.5 48,-162.5"/>
<text text-anchor="middle" x="100.5" y="-345.3" font-family="Times,serif" font-size="14.00">IndextoolsController</text>
<polyline fill="none" stroke="black" points="36,-337.5 165,-337.5 "/>
<text text-anchor="start" x="44" y="-322.3" font-family="Times,serif" font-size="14.00">create</text>
<text text-anchor="start" x="44" y="-307.3" font-family="Times,serif" font-size="14.00">destroy</text>
<text text-anchor="start" x="44" y="-292.3" font-family="Times,serif" font-size="14.00">new</text>
<text text-anchor="start" x="44" y="-277.3" font-family="Times,serif" font-size="14.00">remove</text>
<polyline fill="none" stroke="black" points="36,-269.5 165,-269.5 "/>
<polyline fill="none" stroke="black" points="36,-245.5 165,-245.5 "/>
<text text-anchor="start" x="44" y="-230.3" font-family="Times,serif" font-size="14.00">_layout</text>
<text text-anchor="start" x="44" y="-215.3" font-family="Times,serif" font-size="14.00">indextool_params</text>
<text text-anchor="start" x="44" y="-200.3" font-family="Times,serif" font-size="14.00">set_employee</text>
<text text-anchor="start" x="44" y="-185.3" font-family="Times,serif" font-size="14.00">set_indextool</text>
<text text-anchor="start" x="44" y="-170.3" font-family="Times,serif" font-size="14.00">set_tool</text>
</g>
</g>
</svg>
