<?xml version="1.0" encoding="UTF-8" standalone="no"?>
<!DOCTYPE svg PUBLIC "-//W3C//DTD SVG 1.1//EN"
 "http://www.w3.org/Graphics/SVG/1.1/DTD/svg11.dtd">
<!-- Generated by graphviz version 2.36.0 (20140111.2315)
 -->
<!-- Title: models_diagram Pages: 1 -->
<svg width="580pt" height="158pt"
 viewBox="0.00 0.00 580.00 158.00" xmlns="http://www.w3.org/2000/svg" xmlns:xlink="http://www.w3.org/1999/xlink">
<g id="graph0" class="graph" transform="scale(1 1) rotate(0) translate(4 154)">
<title>models_diagram</title>
<polygon fill="none" stroke="none" points="-4,4 -4,-154 576,-154 576,4 -4,4"/>
<!-- _diagram_info -->
<g id="node1" class="node"><title>_diagram_info</title>
<text text-anchor="start" x="7" y="-135.6" font-family="Times,serif" font-size="13.00">Models diagram</text>
<text text-anchor="start" x="7" y="-121.6" font-family="Times,serif" font-size="13.00">Date: Nov 08 2016 &#45; 19:19</text>
<text text-anchor="start" x="7" y="-107.6" font-family="Times,serif" font-size="13.00">Migration version: 20160825083256</text>
<text text-anchor="start" x="7" y="-93.6" font-family="Times,serif" font-size="13.00">Generated by RailRoady 1.5.2</text>
<text text-anchor="start" x="7" y="-79.6" font-family="Times,serif" font-size="13.00">http://railroady.prestonlee.com</text>
</g>
<!-- Indextool -->
<g id="node2" class="node"><title>Indextool</title>
<ellipse fill="none" stroke="black" cx="296" cy="-18" rx="44.2946" ry="18"/>
<text text-anchor="middle" x="296" y="-14.3" font-family="Times,serif" font-size="14.00">Indextool</text>
</g>
<!-- Indexmachine -->
<g id="node3" class="node"><title>Indexmachine</title>
<ellipse fill="none" stroke="black" cx="438" cy="-18" rx="61.1419" ry="18"/>
<text text-anchor="middle" x="438" y="-14.3" font-family="Times,serif" font-size="14.00">Indexmachine</text>
</g>
<!-- User -->
<g id="node4" class="node"><title>User</title>
<ellipse fill="none" stroke="black" cx="545" cy="-111" rx="26.949" ry="18"/>
<text text-anchor="middle" x="545" y="-107.3" font-family="Times,serif" font-size="14.00">User</text>
</g>
<!-- Employee -->
<g id="node5" class="node"><title>Employee</title>
<ellipse fill="none" stroke="black" cx="350" cy="-111" rx="46.1964" ry="18"/>
<text text-anchor="middle" x="350" y="-107.3" font-family="Times,serif" font-size="14.00">Employee</text>
</g>
<!-- Employee&#45;&gt;Indextool -->
<g id="edge2" class="edge"><title>Employee&#45;&gt;Indextool</title>
<path fill="none" stroke="#e087ec" d="M335.97,-86.3571C328.36,-73.5331 318.948,-57.6709 311.168,-44.5614"/>
<ellipse fill="none" stroke="#e087ec" cx="338.054" cy="-89.8693" rx="4.00002" ry="4.00002"/>
<polygon fill="#e087ec" stroke="#e087ec" points="310.945,-44.1848 309.712,-33.2885 308.393,-39.8849 305.842,-35.585 305.842,-35.585 305.842,-35.585 308.393,-39.8849 301.972,-37.8815 310.945,-44.1848 310.945,-44.1848"/>
</g>
<!-- Employee&#45;&gt;Indexmachine -->
<g id="edge1" class="edge"><title>Employee&#45;&gt;Indexmachine</title>
<path fill="none" stroke="#45da13" d="M371.654,-87.6075C384.832,-73.9808 401.649,-56.5898 415.055,-42.7271"/>
<ellipse fill="none" stroke="#45da13" cx="368.513" cy="-90.8556" rx="4.00002" ry="4.00002"/>
<polygon fill="#45da13" stroke="#45da13" points="415.155,-42.6235 425.342,-38.5632 418.631,-39.0292 422.107,-35.4349 422.107,-35.4349 422.107,-35.4349 418.631,-39.0292 418.872,-32.3067 415.155,-42.6235 415.155,-42.6235"/>
</g>
<!-- Tool -->
<g id="node6" class="node"><title>Tool</title>
<ellipse fill="none" stroke="black" cx="258" cy="-111" rx="26.949" ry="18"/>
<text text-anchor="middle" x="258" y="-107.3" font-family="Times,serif" font-size="14.00">Tool</text>
</g>
<!-- Tool&#45;&gt;Indextool -->
<g id="edge3" class="edge"><title>Tool&#45;&gt;Indextool</title>
<path fill="none" stroke="#94f30c" d="M268.213,-85.5428C273.387,-73.1516 279.677,-58.0901 284.962,-45.4323"/>
<ellipse fill="none" stroke="#94f30c" cx="266.511" cy="-89.6181" rx="4.00001" ry="4.00001"/>
<polygon fill="#94f30c" stroke="#94f30c" points="285.092,-45.1209 293.098,-37.6272 287.019,-40.507 288.946,-35.8932 288.946,-35.8932 288.946,-35.8932 287.019,-40.507 284.793,-34.1591 285.092,-45.1209 285.092,-45.1209"/>
</g>
<!-- Machine -->
<g id="node7" class="node"><title>Machine</title>
<ellipse fill="none" stroke="black" cx="457" cy="-111" rx="42.3701" ry="18"/>
<text text-anchor="middle" x="457" y="-107.3" font-family="Times,serif" font-size="14.00">Machine</text>
</g>
<!-- Machine&#45;&gt;Indexmachine -->
<g id="edge4" class="edge"><title>Machine&#45;&gt;Indexmachine</title>
<path fill="none" stroke="#6aa661" d="M451.724,-84.7285C449.217,-72.7246 446.218,-58.3622 443.664,-46.1291"/>
<ellipse fill="none" stroke="#6aa661" cx="452.609" cy="-88.968" rx="4.00001" ry="4.00001"/>
<polygon fill="#6aa661" stroke="#6aa661" points="443.602,-45.8286 445.963,-35.1199 442.58,-40.9341 441.558,-36.0397 441.558,-36.0397 441.558,-36.0397 442.58,-40.9341 437.153,-36.9594 443.602,-45.8286 443.602,-45.8286"/>
</g>
</g>
</svg>
