<?xml version="1.0" encoding="UTF-8" standalone="no"?>
<!DOCTYPE svg PUBLIC "-//W3C//DTD SVG 1.1//EN"
 "http://www.w3.org/Graphics/SVG/1.1/DTD/svg11.dtd">
<!-- Generated by graphviz version 2.36.0 (20140111.2315)
 -->
<!-- Title: models_diagram Pages: 1 -->
<svg width="879pt" height="364pt"
 viewBox="0.00 0.00 879.00 364.00" xmlns="http://www.w3.org/2000/svg" xmlns:xlink="http://www.w3.org/1999/xlink">
<g id="graph0" class="graph" transform="scale(1 1) rotate(0) translate(4 360)">
<title>models_diagram</title>
<polygon fill="none" stroke="none" points="-4,4 -4,-360 875,-360 875,4 -4,4"/>
<!-- _diagram_info -->
<g id="node1" class="node"><title>_diagram_info</title>
<text text-anchor="start" x="7" y="-296.6" font-family="Times,serif" font-size="13.00">Models diagram</text>
<text text-anchor="start" x="7" y="-282.6" font-family="Times,serif" font-size="13.00">Date: Nov 08 2016 &#45; 19:19</text>
<text text-anchor="start" x="7" y="-268.6" font-family="Times,serif" font-size="13.00">Migration version: 20160825083256</text>
<text text-anchor="start" x="7" y="-254.6" font-family="Times,serif" font-size="13.00">Generated by RailRoady 1.5.2</text>
<text text-anchor="start" x="7" y="-240.6" font-family="Times,serif" font-size="13.00">http://railroady.prestonlee.com</text>
</g>
<!-- Indextool -->
<g id="node2" class="node"><title>Indextool</title>
<path fill="none" stroke="black" d="M316.5,-8C316.5,-8 447.5,-8 447.5,-8 453.5,-8 459.5,-14 459.5,-20 459.5,-20 459.5,-132 459.5,-132 459.5,-138 453.5,-144 447.5,-144 447.5,-144 316.5,-144 316.5,-144 310.5,-144 304.5,-138 304.5,-132 304.5,-132 304.5,-20 304.5,-20 304.5,-14 310.5,-8 316.5,-8"/>
<text text-anchor="middle" x="382" y="-128.8" font-family="Times,serif" font-size="14.00">Indextool</text>
<polyline fill="none" stroke="black" points="304.5,-121 459.5,-121 "/>
<text text-anchor="start" x="312.5" y="-105.8" font-family="Times,serif" font-size="14.00">id :INTEGER</text>
<text text-anchor="start" x="312.5" y="-90.8" font-family="Times,serif" font-size="14.00">ausgegeben_am :date</text>
<text text-anchor="start" x="312.5" y="-75.8" font-family="Times,serif" font-size="14.00">ausgegeben_von :varchar</text>
<text text-anchor="start" x="312.5" y="-60.8" font-family="Times,serif" font-size="14.00">employee_id :integer</text>
<text text-anchor="start" x="312.5" y="-45.8" font-family="Times,serif" font-size="14.00">tool_id :integer</text>
<text text-anchor="start" x="312.5" y="-30.8" font-family="Times,serif" font-size="14.00">created_at :datetime</text>
<text text-anchor="start" x="312.5" y="-15.8" font-family="Times,serif" font-size="14.00">updated_at :datetime</text>
</g>
<!-- Indexmachine -->
<g id="node3" class="node"><title>Indexmachine</title>
<path fill="none" stroke="black" d="M528.5,-0.5C528.5,-0.5 659.5,-0.5 659.5,-0.5 665.5,-0.5 671.5,-6.5 671.5,-12.5 671.5,-12.5 671.5,-139.5 671.5,-139.5 671.5,-145.5 665.5,-151.5 659.5,-151.5 659.5,-151.5 528.5,-151.5 528.5,-151.5 522.5,-151.5 516.5,-145.5 516.5,-139.5 516.5,-139.5 516.5,-12.5 516.5,-12.5 516.5,-6.5 522.5,-0.5 528.5,-0.5"/>
<text text-anchor="middle" x="594" y="-136.3" font-family="Times,serif" font-size="14.00">Indexmachine</text>
<polyline fill="none" stroke="black" points="516.5,-128.5 671.5,-128.5 "/>
<text text-anchor="start" x="524.5" y="-113.3" font-family="Times,serif" font-size="14.00">id :INTEGER</text>
<text text-anchor="start" x="524.5" y="-98.3" font-family="Times,serif" font-size="14.00">ausgeliehen :boolean</text>
<text text-anchor="start" x="524.5" y="-83.3" font-family="Times,serif" font-size="14.00">ausgegeben_am :date</text>
<text text-anchor="start" x="524.5" y="-68.3" font-family="Times,serif" font-size="14.00">ausgegeben_von :varchar</text>
<text text-anchor="start" x="524.5" y="-53.3" font-family="Times,serif" font-size="14.00">employee_id :integer</text>
<text text-anchor="start" x="524.5" y="-38.3" font-family="Times,serif" font-size="14.00">machine_id :integer</text>
<text text-anchor="start" x="524.5" y="-23.3" font-family="Times,serif" font-size="14.00">created_at :datetime</text>
<text text-anchor="start" x="524.5" y="-8.3" font-family="Times,serif" font-size="14.00">updated_at :datetime</text>
</g>
<!-- User -->
<g id="node4" class="node"><title>User</title>
<path fill="none" stroke="black" d="M728.5,-219C728.5,-219 859.5,-219 859.5,-219 865.5,-219 871.5,-225 871.5,-231 871.5,-231 871.5,-313 871.5,-313 871.5,-319 865.5,-325 859.5,-325 859.5,-325 728.5,-325 728.5,-325 722.5,-325 716.5,-319 716.5,-313 716.5,-313 716.5,-231 716.5,-231 716.5,-225 722.5,-219 728.5,-219"/>
<text text-anchor="middle" x="794" y="-309.8" font-family="Times,serif" font-size="14.00">User</text>
<polyline fill="none" stroke="black" points="716.5,-302 871.5,-302 "/>
<text text-anchor="start" x="724.5" y="-286.8" font-family="Times,serif" font-size="14.00">id :INTEGER</text>
<text text-anchor="start" x="724.5" y="-271.8" font-family="Times,serif" font-size="14.00">name :varchar</text>
<text text-anchor="start" x="724.5" y="-256.8" font-family="Times,serif" font-size="14.00">password_digest :varchar</text>
<text text-anchor="start" x="724.5" y="-241.8" font-family="Times,serif" font-size="14.00">created_at :datetime</text>
<text text-anchor="start" x="724.5" y="-226.8" font-family="Times,serif" font-size="14.00">updated_at :datetime</text>
</g>
<!-- Employee -->
<g id="node5" class="node"><title>Employee</title>
<path fill="none" stroke="black" d="M407,-211.5C407,-211.5 537,-211.5 537,-211.5 543,-211.5 549,-217.5 549,-223.5 549,-223.5 549,-320.5 549,-320.5 549,-326.5 543,-332.5 537,-332.5 537,-332.5 407,-332.5 407,-332.5 401,-332.5 395,-326.5 395,-320.5 395,-320.5 395,-223.5 395,-223.5 395,-217.5 401,-211.5 407,-211.5"/>
<text text-anchor="middle" x="472" y="-317.3" font-family="Times,serif" font-size="14.00">Employee</text>
<polyline fill="none" stroke="black" points="395,-309.5 549,-309.5 "/>
<text text-anchor="start" x="403" y="-294.3" font-family="Times,serif" font-size="14.00">id :INTEGER</text>
<text text-anchor="start" x="403" y="-279.3" font-family="Times,serif" font-size="14.00">vorname :varchar</text>
<text text-anchor="start" x="403" y="-264.3" font-family="Times,serif" font-size="14.00">nachname :varchar</text>
<text text-anchor="start" x="403" y="-249.3" font-family="Times,serif" font-size="14.00">personalnummer :integer</text>
<text text-anchor="start" x="403" y="-234.3" font-family="Times,serif" font-size="14.00">created_at :datetime</text>
<text text-anchor="start" x="403" y="-219.3" font-family="Times,serif" font-size="14.00">updated_at :datetime</text>
</g>
<!-- Employee&#45;&gt;Indextool -->
<g id="edge2" class="edge"><title>Employee&#45;&gt;Indextool</title>
<path fill="none" stroke="#4b7725" d="M440.984,-204.143C433.399,-187.794 425.226,-170.176 417.451,-153.418"/>
<ellipse fill="none" stroke="#4b7725" cx="442.702" cy="-207.847" rx="4.00002" ry="4.00002"/>
<polygon fill="#4b7725" stroke="#4b7725" points="417.388,-153.28 417.262,-142.315 415.284,-148.745 413.179,-144.209 413.179,-144.209 413.179,-144.209 415.284,-148.745 409.097,-146.103 417.388,-153.28 417.388,-153.28"/>
</g>
<!-- Employee&#45;&gt;Indexmachine -->
<g id="edge1" class="edge"><title>Employee&#45;&gt;Indexmachine</title>
<path fill="none" stroke="#59d212" d="M513.933,-204.319C522.822,-190.184 532.312,-175.094 541.536,-160.427"/>
<ellipse fill="none" stroke="#59d212" cx="511.563" cy="-208.089" rx="4.00002" ry="4.00002"/>
<polygon fill="#59d212" stroke="#59d212" points="541.606,-160.315 550.739,-154.245 544.268,-156.083 546.929,-151.85 546.929,-151.85 546.929,-151.85 544.268,-156.083 543.12,-149.454 541.606,-160.315 541.606,-160.315"/>
</g>
<!-- Tool -->
<g id="node6" class="node"><title>Tool</title>
<path fill="none" stroke="black" d="M243,-189C243,-189 365,-189 365,-189 371,-189 377,-195 377,-201 377,-201 377,-343 377,-343 377,-349 371,-355 365,-355 365,-355 243,-355 243,-355 237,-355 231,-349 231,-343 231,-343 231,-201 231,-201 231,-195 237,-189 243,-189"/>
<text text-anchor="middle" x="304" y="-339.8" font-family="Times,serif" font-size="14.00">Tool</text>
<polyline fill="none" stroke="black" points="231,-332 377,-332 "/>
<text text-anchor="start" x="239" y="-316.8" font-family="Times,serif" font-size="14.00">id :INTEGER</text>
<text text-anchor="start" x="239" y="-301.8" font-family="Times,serif" font-size="14.00">hersteller :varchar</text>
<text text-anchor="start" x="239" y="-286.8" font-family="Times,serif" font-size="14.00">modell :varchar</text>
<text text-anchor="start" x="239" y="-271.8" font-family="Times,serif" font-size="14.00">barcode :integer</text>
<text text-anchor="start" x="239" y="-256.8" font-family="Times,serif" font-size="14.00">lagerbestand :integer</text>
<text text-anchor="start" x="239" y="-241.8" font-family="Times,serif" font-size="14.00">mindestbestand :integer</text>
<text text-anchor="start" x="239" y="-226.8" font-family="Times,serif" font-size="14.00">anzahl_ersatz :integer</text>
<text text-anchor="start" x="239" y="-211.8" font-family="Times,serif" font-size="14.00">created_at :datetime</text>
<text text-anchor="start" x="239" y="-196.8" font-family="Times,serif" font-size="14.00">updated_at :datetime</text>
</g>
<!-- Tool&#45;&gt;Indextool -->
<g id="edge3" class="edge"><title>Tool&#45;&gt;Indextool</title>
<path fill="none" stroke="#3c8d01" d="M340.176,-181.024C343.88,-171.81 347.619,-162.512 351.257,-153.463"/>
<ellipse fill="none" stroke="#3c8d01" cx="338.571" cy="-185.015" rx="4.00001" ry="4.00001"/>
<polygon fill="#3c8d01" stroke="#3c8d01" points="351.276,-153.416 359.182,-145.816 353.141,-148.776 355.007,-144.137 355.007,-144.137 355.007,-144.137 353.141,-148.776 350.831,-142.459 351.276,-153.416 351.276,-153.416"/>
</g>
<!-- Machine -->
<g id="node7" class="node"><title>Machine</title>
<path fill="none" stroke="black" d="M579.5,-204C579.5,-204 686.5,-204 686.5,-204 692.5,-204 698.5,-210 698.5,-216 698.5,-216 698.5,-328 698.5,-328 698.5,-334 692.5,-340 686.5,-340 686.5,-340 579.5,-340 579.5,-340 573.5,-340 567.5,-334 567.5,-328 567.5,-328 567.5,-216 567.5,-216 567.5,-210 573.5,-204 579.5,-204"/>
<text text-anchor="middle" x="633" y="-324.8" font-family="Times,serif" font-size="14.00">Machine</text>
<polyline fill="none" stroke="black" points="567.5,-317 698.5,-317 "/>
<text text-anchor="start" x="575.5" y="-301.8" font-family="Times,serif" font-size="14.00">id :INTEGER</text>
<text text-anchor="start" x="575.5" y="-286.8" font-family="Times,serif" font-size="14.00">hersteller :varchar</text>
<text text-anchor="start" x="575.5" y="-271.8" font-family="Times,serif" font-size="14.00">modell :varchar</text>
<text text-anchor="start" x="575.5" y="-256.8" font-family="Times,serif" font-size="14.00">barcode :integer</text>
<text text-anchor="start" x="575.5" y="-241.8" font-family="Times,serif" font-size="14.00">ausgegeben :boolean</text>
<text text-anchor="start" x="575.5" y="-226.8" font-family="Times,serif" font-size="14.00">created_at :datetime</text>
<text text-anchor="start" x="575.5" y="-211.8" font-family="Times,serif" font-size="14.00">updated_at :datetime</text>
</g>
<!-- Machine&#45;&gt;Indexmachine -->
<g id="edge4" class="edge"><title>Machine&#45;&gt;Indexmachine</title>
<path fill="none" stroke="#2bc4fc" d="M617.916,-195.969C615.656,-184.726 613.313,-173.068 611.016,-161.642"/>
<ellipse fill="none" stroke="#2bc4fc" cx="618.735" cy="-200.043" rx="4.00001" ry="4.00001"/>
<polygon fill="#2bc4fc" stroke="#2bc4fc" points="610.983,-161.481 613.424,-150.79 609.998,-156.579 609.012,-151.677 609.012,-151.677 609.012,-151.677 609.998,-156.579 604.601,-152.564 610.983,-161.481 610.983,-161.481"/>
</g>
</g>
</svg>
